<?xml version="1.0" encoding="UTF-8"?>
<svg id="Layer_1" xmlns="http://www.w3.org/2000/svg" xmlns:serif="http://www.serif.com/" version="1.1" viewBox="0 0 593.54 582.49">
  <!-- Generator: Adobe Illustrator 30.2.1, SVG Export Plug-In . SVG Version: 2.1.1 Build 1)  -->
  <defs>
    <style>
      .st0 {
        fill: none;
      }

      .st1 {
        fill: #7b69ad;
      }

      .st2 {
        fill: #16253d;
      }

      .st3 {
        fill: #f0ac3d;
      }

      .st4 {
        fill: #1e293c;
      }

      .st5 {
        fill: #7c69ad;
      }

      .st6 {
        fill: #26354c;
      }

      .st7 {
        fill: #fff;
      }

      .st8 {
        fill: #25344c;
      }

      .st9 {
        fill: #24334b;
      }

      .st10 {
        fill: #407fc1;
      }

      .st11 {
        fill: #41a980;
      }
    </style>
  </defs>
  <path class="st7" d="M476.01,56.29c-7.01,8.02-14.57,15.48-22.54,23.58l-45.11,45.94c-4.37,4.45-7.22,9.58-12.45,15.94l48.42,4.06c4.74.39,8.46,2.25,9.81,6.5-.93,4.35-.85,9.5-.41,14.83l3.08,37.27c9.03-10.17,16.67-18.3,23.16-27.49,4.09-2.69,7.97-6.5,11.75-10.69,17.31-19.1,29.4-27.54,44.08-45.94,5.9,1.66,9.68,6.29,12.37,11.28l21.04,21.9L592.77,0l-147.32,21.84,30.51,34.4.05.05ZM127.52,249.89l-.08-211.92c0-11.88-8.95-18.56-19.51-18.53l-88.07.05C9.55,19.49.13,26.32.13,37.99v279.99c21.02-16.67,40.48-30.36,62.74-43.4,19.98-11.72,42.19-17.55,64.63-24.67h.03v-.03ZM369.67,129.59c18.48-21.27,36.96-40.48,55.7-60.59l-.52-33.57c-.13-9.01-7.95-15.94-16.77-15.94h-91.39c-11.28,0-19.36,8.26-19.36,20.11l.08,160.39c19.98-12.89,33.44-28,48.66-43.22l23.58-27.15h.03v-.03ZM377.87,233.56c-1.63,17.42-1.19,34.19-.93,54.07,4.3-.8,28.62-26.3,29.63-29.12,6.47-4.89,12.81-10.79,18.82-17.5l12.06-13.48c.91-15.01-.78-48.58-4.06-62.89l-50.34-2.51c-5.8-.28-8.7,1.94-12.11,6.06-6.47,7.82-13.2,15.55-20.52,22.52l-15.3,14.49-20.91,18.97,49.05,3.96c7.48.6,9.63,1.97,14.62,5.44ZM1.79,522.08c-.39,1.16-.47,3.68-.28,4.89-.16-.08-1.19,1.48-1.19,2.15L0,561.66c-.1,10.87,7.74,18.79,18.19,18.79l92.89.1c9.68,0,16.49-7.48,16.49-16.98v-137.46c-.03-3.93-.83-8.59-1.22-11.7,1.42-8.39,1.32-23.5,1.19-31.37,0-1.32.26-3.83.39-5.25,2.67-8.31,58.65-17.52,69.08-19.05l50.29-7.4c4.92-.72,10.17-3.7,14.83-4.92,34.34-8.95,66.41-21.59,94.67-42.81l1.5-56.19-72.68-5.85c-25,10.97-49.77,18.22-76.38,22.28-20.81,3.16-41.41,3.57-61,10.33l-12.42,4.3C80.23,297.66,43.09,307.29.08,359.65v157.52c0,1.22,1.37,4.48,1.73,4.89h-.03v.03ZM298.44,567.3c1.42,7.51,8,13.25,16.69,13.23l94.73-.1c9.32,0,15.27-9.63,15.24-17.99l-.1-64.32-.39-181.61c0-10.87,1.32-21.66,0-34.78-26.99,27.46-55.41,47.96-87.4,66.77-12.6,7.43-25.86,12.47-40.04,18.09l1.27,200.71Z"/>
  <path class="st10" d="M2.82,523.92c-.13.54-.23,1.09-.31,1.63-.16,1.09-.1,2.17-.26,3.26-.08.44-.16.91-.36,1.29-.1.18-.83.78-.83.88.21-4.24-.16-8.41-.26-12.63-.1-4.27,0-8.54-.03-12.84v-143.82c0-5.05,15.71-17.63,19.41-21.22,6.55-6.34,13.48-12.27,20.86-17.63,24.46-17.78,52.23-30.9,81.16-39.5,29.14-8.67,57.72-12.84,87.71-17.42,26.61-4.06,51.4-11.31,76.38-22.28l72.68,5.85-1.5,56.19c-46.66,35.1-108.21,48.01-165.12,55.26-13.33,1.71-26.74,5.18-39.68,8.7-11.39,3.11-22.36,8.41-33.52,12.32-4.66,1.63-9.16,4.04-13.51,6.44-1.32.72-2.61,1.45-3.93,2.17-1.16.65-2.36,1.29-3.49,1.97-6.96,4.01-13.56,8.59-19.9,13.54-6.34,4.94-12.29,9.68-17.57,15.43-10.51,11.39-20.71,23.09-29.4,35.92-4.35,6.42-8.31,13.12-11.72,20.11-3.42,6.99-5.85,14.08-8.36,21.3-2.28,6.57-4.53,13.12-6.81,19.7-.85,2.46-1.76,4.94-2.17,7.51-.28,1.71-.6,3.44-1.22,5.07.67-1.16.78-2.51.93-3.86.08-.8.72-2.48.8-3.29l.03-.05Z"/>
  <path class="st8" d="M128.27,251.88c-22.47,7.14-44.65,12.97-64.63,24.67-22.28,13.04-41.75,26.74-62.74,43.4V39.96c0-11.67,9.4-18.48,19.7-18.51l88.07-.05c10.56,0,19.51,6.65,19.51,18.53l.08,211.92v.03Z"/>
  <path class="st9" d="M425.34,318.45c.03,1.27,0,2.54-.03,3.78-.03,4.71.08,9.42.08,14.13l.08,32.4.08,40.14.08,40.22.08,32.61v17.29c.03.36.03.7.05,1.06l.1,64.32c0,8.36-5.93,17.99-15.24,17.99l-94.73.1c-8.7,0-15.3-5.72-16.69-13.23,0,.6,1.71-3.11,1.73-4.24l.6-32.92c.47-25.83-.83-50.31.05-75.94.18-5.69,0-11.05-.13-16.67l-.8-38.28c-.05-2.59,2.61-8.75,5.25-9.6,15.37-4.92,44.13-15.24,56.58-24.79,2.1-1.6,4.43-2.8,6.68-4.19,2.12-1.32,4.06-3.05,6.11-4.56,7.51-5.49,14.96-10.92,22.08-16.87,1.55-1.29,3.08-2.59,4.63-3.86,3.83-3.18,7.45-6.42,11.39-9.5.47-.36.96-.7,1.37-1.14.41-.44.85-.83,1.29-1.22.88-.8,1.81-1.53,2.8-2.23.03-.03.08-.05.1-.08.16-.1.28-.21.44-.34.08-.08.16-.16.23-.21.08-.08.18-.1.28-.16.08-.05.13-.13.18-.21.08-.1.16-.18.26-.26.23-.18.49-.31.7-.49.39-.31.78-.62,1.16-.96.75-.65,1.48-1.32,2.07-2.12.21-.28.39-.57.54-.88.08-.16.16-.34.23-.49.05-.1.21-.36.18-.49.08.62.13,1.27.13,1.92v-.05Z"/>
  <path class="st9" d="M128.27,407.53c-.03,1.24-.03,2.51-.03,3.75,0,4.32.16,8.62.16,12.91v136.24c.03,9.5-6.78,16.98-16.43,16.98l-92.89-.1c-10.46,0-18.3-7.92-18.19-18.79.1-9.52.13-19.05.28-28.57.1-7.48,8.18-15.22,12.32-21.33,6.13-9.03,12.32-18.04,19-26.68,3.34-4.32,6.83-8.54,10.46-12.6,3.62-4.06,7.87-7.45,11.26-11.54,6.7-8.1,14.49-14.23,22.91-20.37,2.33-1.71,4.66-3.42,7.04-5.07,11.88-8.44,24.28-16.07,36.7-23.71,1.84-1.14,7.12-3.16,7.56-5.38-.03,1.42-.08,2.87-.13,4.3v-.03Z"/>
  <path class="st6" d="M370.42,131.56l-23.58,27.15c-15.19,15.22-28.65,30.31-48.66,43.22l-.08-160.39c0-11.85,8.08-20.14,19.36-20.14h91.39c8.83,0,16.64,6.96,16.77,15.97l.52,33.57c-18.74,20.14-37.22,39.31-55.7,60.59h-.03v.03Z"/>
  <path class="st11" d="M537.79,121.2c-2.36-2.54-4.24-5.49-6.68-7.95l-7.22-7.32-10.38-10.51-10.79-10.92-8.46-8.59-3.44-3.49-14.08-14.13-30.51-34.4L593.54,2.04l-23.55,153.48c-1.09-1.14-2.17-2.28-3.29-3.42l-12.09-12.58-2.64-2.74c-1.09-1.14-2.2-2.17-3.29-3.31-2.82-2.95-4.94-6.5-7.87-9.34-.75-.75-1.58-1.42-2.33-2.2-.23-.23-.49-.49-.72-.75l.03.03Z"/>
  <path class="st1" d="M536.6,122.37c-.36.41-.7.83-1.04,1.24s-.67.83-1.01,1.22c-.65.8-1.32,1.58-1.97,2.36-1.27,1.5-2.56,2.98-3.88,4.43-4.09,4.5-8.39,8.8-12.76,13.02-4.37,4.22-9.03,8.67-13.46,13.12l-.08.08c-2.61,2.64-5.12,5.36-7.84,7.87-2.33,2.17-4.56,4.45-6.78,6.7-2.23,2.25-4.56,4.37-6.81,6.6-.1.1-.21.23-.34.31-.05-.16.03-.28,0-.44-.05-.21-.28-.47-.39-.65-.18-.31-.39-.6-.6-.88-.05-.05-.08-.13-.1-.18-.03-.05-.08-.08-.1-.13-.1-.13-.18-.23-.28-.36-.47-.57-.96-1.14-1.45-1.71-1.68-1.92-3.42-3.8-5.18-5.64-2.02-2.12-4.09-4.22-6.19-6.24-1.92-1.86-3.86-3.68-5.9-5.41-1.32-1.14-2.72-2.36-4.3-3.13-.31-.16-.88-.44-1.24-.21.28-.18-.98-2.04-1.19-2.2-.72-.6-2.02-.83-2.9-1.11-2.36-.75-4.79-1.29-7.22-1.79-6.88-1.37-13.82-2.28-20.83-2.8-4.48-.31-8.95-.72-13.41-1.19-2.23-.23-4.45-.49-6.68-.78-1.09-.13-2.15-.26-3.24-.41-.36-.05-2.51-.6-2.74-.31,5.23-6.37,8.08-11.49,12.45-15.94l45.11-45.94c7.97-8.1,15.53-15.55,22.54-23.58l14.08,14.13,42.01,42.58c.54.54.91,1.22,1.37,1.84.49.67,1.01,1.29,1.55,1.92.65.78,1.29,1.55,1.94,2.3-.39.41-.75.85-1.11,1.29l-.05.03Z"/>
  <path class="st3" d="M378.6,235.94c.08-.54.05-1.09-.08-1.63-1.11-.49-2.3-.8-3.49-1.11-4.56-1.16-9.14-1.92-13.77-2.59-7.69-1.09-15.4-1.92-23.14-2.61-3.86-.34-7.74-.67-11.59-.98-1.94-.16-3.88-.31-5.82-.47-.98-.08-1.94-.16-2.92-.23-.52-.05-1.01-.08-1.53-.13-.21,0-1.16-.23-1.29-.1l20.91-18.97,15.3-14.49c7.32-6.94,14.05-14.67,20.52-22.52,3.42-4.14,6.29-6.37,12.11-6.06l50.34,2.51c.52,2.23.91,4.48,1.24,6.73,1.14,7.51,1.79,15.09,2.25,22.65s.8,15.71.8,23.55c0,3.08.08,6.24-.21,9.32-.1.98-.78,1.14-1.45,1.81-.98.98-1.89,2.1-2.82,3.13-1.86,2.04-3.73,4.04-5.62,6.03-3.75,3.96-7.58,7.84-11.49,11.62-1.94,1.89-3.93,3.78-5.9,5.64-.98.93-1.99,1.86-3,2.77-.72.67-.78.47-1.45-.21-.49-.47-.96-.91-1.45-1.37-1.66-1.58-3.31-3.13-4.94-4.71-1.63-1.58-3.44-3.29-5.18-4.92-1.63-1.55-3.31-3.03-4.94-4.58-.36-.34-.7-.67-1.09-.96-.26-.21-.52-.36-.78-.6-.7-.6-1.29-1.29-2.02-1.89-.8-.65-1.6-1.27-2.43-1.86-1.63-1.19-3.31-2.3-5.07-3.29"/>
  <path class="st4" d="M424.77,318.16c-.65,1.14-1.84,1.79-3.29,2.98-2.3,1.89-4.58,3.78-6.88,5.67-8.05,6.68-15.89,13.64-23.91,20.32-8.02,6.68-17.03,12.76-25.88,18.71-1.99,1.35-3.99,2.67-6.06,3.88-8.54,4.92-17.78,8.96-26.97,12.6-8.54,3.39-17.21,6.47-25.99,9.29-2.64.85-5.31,7.01-5.25,9.6l.8,38.28c.13,5.62.34,10.97.13,16.67-.88,25.65.41,50.13-.05,75.94l-.6,32.92c0,1.14-1.73,4.84-1.73,4.24l-1.27-200.71c14.18-5.64,27.43-10.66,40.04-18.09.83-.83,2.38-1.4,3.39-2.02,1.14-.67,2.25-1.35,3.36-2.02,9.63-5.85,19.1-11.98,28.29-18.45s18.12-13.33,26.74-20.58c4.37-3.7,8.7-7.48,12.89-11.36,2.15-1.97,4.27-3.99,6.34-6,2.07-2.02,4.01-4.32,6.24-6.16.41,2.8,0,5.95,0,8.8v8.93c-.05,2.98-.05,5.98-.08,8.96v4.48c0,1.09.23,2.23-.34,3.21l.08-.08Z"/>
  <path class="st2" d="M17.21,504.41c4.68-6.6,9.37-13.23,14.03-19.83,1.6-2.25,3.21-4.53,4.92-6.73,4.63-5.95,9.68-11.62,15.17-16.82,5.49-5.2,10.4-9.91,16.05-14.49,7.66-6.21,15.71-11.8,23.89-17.29,4.12-2.74,8.31-5.36,12.5-8.02,4.94-3.16,9.86-6.32,14.7-9.63,1.86-1.27,3.7-2.59,5.51-3.93,1.42-1.09,3.96-2.51,4.35-4.4.08-.31.08-.65.08-.98,0-6.94-.36-13.67-.13-20.6,0,.28,0,.57-.03.88,0-1.45-.05-2.77-.05-4.22-4.17,1.4-8.36,2.8-12.37,4.58-3.55,1.6-6.96,3.49-10.35,5.41-5.95,3.36-11.91,6.76-17.63,10.48-27.25,17.86-48.11,41.75-64.34,70.01-5.46,9.5-9.52,19.72-13.12,30.02-1.86,5.31-3.57,10.66-5.31,16.02-.62,1.94-1.37,3.86-2.07,5.77-.36.98-.7,1.99-1.04,2.98-.26.8-.41,1.63-.78,2.41,0,.05-.05.08-.05.13v.98c0,.54,0,1.06.03,1.6,1.24-3.6,4.19-7.19,6.32-10.35,2.3-3.47,4.71-6.86,7.12-10.25l2.67-3.75-.05.03Z"/>
  <path class="st3" d="M395.34,272.09c4.06-3.93,8.13-7.87,12.16-11.8-.88-.31-1.22-1.01-1.89-1.53-.34-.26-.62-.49-.93-.8-1.76-1.68-3.52-3.34-5.28-5.02-1.76-1.68-3.44-3.29-5.18-4.92-.78-.75-1.55-1.48-2.33-2.23-1.86-1.79-3.86-3.36-5.72-5.12s-3.93-3.16-6.08-4.43c-.52-.31-1.04-.6-1.55-.88.1,2.17,0,4.35-.03,6.52,0,2.3-.03,4.58-.05,6.88-.05,4.53-.13,9.08-.13,13.61s-.1,8.96-.18,13.46c-.03,2.28-.08,4.56-.1,6.83-.03,2.07-.34,4.35-.1,6.39"/>
  <path class="st5" d="M480.83,178.53l-2.28-2.69s-.21-.23-.28-.34c-.13-.16-.28-.34-.41-.49-3.26-3.83-6.68-7.51-10.27-11-.91-.88-1.81-1.89-2.85-2.59-1.04-.7-1.92-1.71-2.82-2.54-1.09-.96-2.17-1.89-3.31-2.77-.65-.49-1.19-1.04-1.84-1.53-.21-.16-.47-.23-.65-.36-.28-.23-.52-.57-.75-.85-.28-.31-.57-.6-.85-.88-.1-.1-.75-.57-.78-.72.16,5.8.26,11.59.75,17.37l3.08,37.27c2.23-2.51,4.45-5,6.68-7.48,2.07-2.3,4.14-4.63,6.16-6.99.78-.91,1.58-1.76,2.3-2.69.72-.93,1.35-1.84,2.07-2.72,1.45-1.79,2.98-3.49,4.43-5.28.31-.39.6-.75.91-1.14.16-.21.34-.44.47-.67.05-.08.13-.18.18-.28.03-.08,0-.18,0-.26-.34-.72-.93-1.4-1.42-2.02-.8-.98-1.63-1.97-2.48-2.92-1.09-1.22-2.2-2.43-3.31-3.62-1.27-1.35-2.54-2.67-3.83-3.99-1.29-1.32-2.64-2.64-3.99-3.93-.34-.34-.7-.67-1.04-1.01-.16-.13-.21-.28-.36-.44-.18-.21-.36-.39-.54-.62-.08-.1-.13-.21-.23-.26-.08-.05-.16-.08-.23-.13-.23-.13-.39-.36-.6-.54-.26-.21-.57-.34-.8-.57"/>
  <path class="st0" d="M429.09,324.55v-.05"/>
  <path class="st0" d="M435.04,144.11c.21.03.39.21.39.41"/>
</svg>