<?xml version="1.0" encoding="UTF-8"?>
<svg id="Layer_1" xmlns="http://www.w3.org/2000/svg" version="1.1" viewBox="0 0 595.28 841.89">
  <!-- Generator: Adobe Illustrator 30.2.1, SVG Export Plug-In . SVG Version: 2.1.1 Build 1)  -->
  <defs>
    <style>
      .st0 {
        fill: none;
      }

      .st1 {
        fill: #7b69ad;
      }

      .st2 {
        fill: #16253d;
      }

      .st3 {
        fill: #f0ac3d;
      }

      .st4 {
        fill: #1e293c;
      }

      .st5 {
        fill: #7c69ad;
      }

      .st6 {
        fill: #26354c;
      }

      .st7 {
        fill: #fff;
      }

      .st8 {
        fill: #25344c;
      }

      .st9 {
        fill: #24334b;
      }

      .st10 {
        fill: #407fc1;
      }

      .st11 {
        fill: #41a980;
      }
    </style>
  </defs>
  <path class="st7" d="M-112.89,184.42h821.07v486.49H-112.89V184.42ZM406.9,337.08c-2.71,3.1-5.63,5.98-8.71,9.11l-17.43,17.75c-1.69,1.72-2.79,3.7-4.81,6.16l18.71,1.57c1.83.15,3.27.87,3.79,2.51-.36,1.68-.33,3.67-.16,5.73l1.19,14.4c3.49-3.93,6.44-7.07,8.95-10.62,1.58-1.04,3.08-2.51,4.54-4.13,6.69-7.38,11.36-10.64,17.03-17.75,2.28.64,3.74,2.43,4.78,4.36l8.13,8.46,9.1-59.3-56.92,8.44,11.79,13.29.02.02ZM272.25,411.88l-.03-81.88c0-4.59-3.46-7.17-7.54-7.16l-34.03.02c-3.98,0-7.62,2.64-7.62,7.15v108.18c8.12-6.44,15.64-11.73,24.24-16.77,7.72-4.53,16.3-6.78,24.97-9.53h.01ZM365.81,365.4c7.14-8.22,14.28-15.64,21.52-23.41l-.2-12.97c-.05-3.48-3.07-6.16-6.48-6.16h-35.31c-4.36,0-7.48,3.19-7.48,7.77l.03,61.97c7.72-4.98,12.92-10.82,18.8-16.7l9.11-10.49h.01ZM368.98,405.57c-.63,6.73-.46,13.21-.36,20.89,1.66-.31,11.06-10.16,11.45-11.25,2.5-1.89,4.95-4.17,7.27-6.76l4.66-5.21c.35-5.8-.3-18.77-1.57-24.3l-19.45-.97c-2.24-.11-3.36.75-4.68,2.34-2.5,3.02-5.1,6.01-7.93,8.7l-5.91,5.6-8.08,7.33,18.95,1.53c2.89.23,3.72.76,5.65,2.1h0ZM223.67,517.05c-.15.45-.18,1.42-.11,1.89-.06-.03-.46.57-.46.83l-.12,12.57c-.04,4.2,2.99,7.26,7.03,7.26l35.89.04c3.74,0,6.37-2.89,6.37-6.56v-53.11c-.01-1.52-.32-3.32-.47-4.52.55-3.24.51-9.08.46-12.12,0-.51.1-1.48.15-2.03,1.03-3.21,22.66-6.77,26.69-7.36l19.43-2.86c1.9-.28,3.93-1.43,5.73-1.9,13.27-3.46,25.66-8.34,36.58-16.54l.58-21.71-28.08-2.26c-9.66,4.24-19.23,7.04-29.51,8.61-8.04,1.22-16,1.38-23.57,3.99l-4.8,1.66c-21.48,7.41-35.83,11.13-52.45,31.36v60.86c0,.47.53,1.73.67,1.89h-.01ZM338.29,534.52c.55,2.9,3.09,5.12,6.45,5.11l36.6-.04c3.6,0,5.9-3.72,5.89-6.95l-.04-24.85-.15-70.17c0-4.2.51-8.37,0-13.44-10.43,10.61-21.41,18.53-33.77,25.8-4.87,2.87-9.99,4.82-15.47,6.99l.49,77.55h0Z"/>
  <g>
    <path class="st10" d="M224.07,517.76c-.05.21-.09.42-.12.63-.06.42-.04.84-.1,1.26-.03.17-.06.35-.14.5-.04.07-.32.3-.32.34.08-1.64-.06-3.25-.1-4.88-.04-1.65,0-3.3-.01-4.96,0-1.7,0-3.4,0-5.1v-50.47c0-1.95,6.07-6.81,7.5-8.2,2.53-2.45,5.21-4.74,8.06-6.81,9.45-6.87,20.18-11.94,31.36-15.26,11.26-3.35,22.3-4.96,33.89-6.73,10.28-1.57,19.86-4.37,29.51-8.61l28.08,2.26s-.58,21.71-.58,21.71c-18.03,13.56-41.81,18.55-63.8,21.35-5.15.66-10.33,2-15.33,3.36-4.4,1.2-8.64,3.25-12.95,4.76-1.8.63-3.54,1.56-5.22,2.49-.51.28-1.01.56-1.52.84-.45.25-.91.5-1.35.76-2.69,1.55-5.24,3.32-7.69,5.23s-4.75,3.74-6.79,5.96c-4.06,4.4-8,8.92-11.36,13.88-1.68,2.48-3.21,5.07-4.53,7.77s-2.26,5.44-3.23,8.23c-.88,2.54-1.75,5.07-2.63,7.61-.33.95-.68,1.91-.84,2.9-.11.66-.23,1.33-.47,1.96.26-.45.3-.97.36-1.49.03-.31.28-.96.31-1.27Z"/>
    <path class="st8" d="M272.54,412.65c-8.68,2.76-17.25,5.01-24.97,9.53-8.61,5.04-16.13,10.33-24.24,16.77v-108.18c0-4.51,3.63-7.14,7.61-7.15l34.03-.02c4.08,0,7.54,2.57,7.54,7.16l.03,81.88h0Z"/>
    <path class="st9" d="M387.32,438.37c.01.49,0,.98-.01,1.46-.01,1.82.03,3.64.03,5.46l.03,12.52.03,15.51.03,15.54.03,12.6v6.68c.01.14.01.27.02.41l.04,24.85c0,3.23-2.29,6.95-5.89,6.95l-36.6.04c-3.36,0-5.91-2.21-6.45-5.11,0,.23.66-1.2.67-1.64l.23-12.72c.18-9.98-.32-19.44.02-29.34.07-2.2,0-4.27-.05-6.44l-.31-14.79c-.02-1,1.01-3.38,2.03-3.71,5.94-1.9,17.05-5.89,21.86-9.58.81-.62,1.71-1.08,2.58-1.62.82-.51,1.57-1.18,2.36-1.76,2.9-2.12,5.78-4.22,8.53-6.52.6-.5,1.19-1,1.79-1.49,1.48-1.23,2.88-2.48,4.4-3.67.18-.14.37-.27.53-.44s.33-.32.5-.47c.34-.31.7-.59,1.08-.86.01-.01.03-.02.04-.03.06-.04.11-.08.17-.13.03-.03.06-.06.09-.08.03-.03.07-.04.11-.06.03-.02.05-.05.07-.08.03-.04.06-.07.1-.1.09-.07.19-.12.27-.19.15-.12.3-.24.45-.37.29-.25.57-.51.8-.82.08-.11.15-.22.21-.34.03-.06.06-.13.09-.19.02-.04.08-.14.07-.19.03.24.05.49.05.74Z"/>
    <path class="st9" d="M272.54,472.79c-.01.48-.01.97-.01,1.45,0,1.67.06,3.33.06,4.99v52.64c.01,3.67-2.62,6.56-6.35,6.56l-35.89-.04c-4.04,0-7.07-3.06-7.03-7.26.04-3.68.05-7.36.11-11.04.04-2.89,3.16-5.88,4.76-8.24,2.37-3.49,4.76-6.97,7.34-10.31,1.29-1.67,2.64-3.3,4.04-4.87s3.04-2.88,4.35-4.46c2.59-3.13,5.6-5.5,8.85-7.87.9-.66,1.8-1.32,2.72-1.96,4.59-3.26,9.38-6.21,14.18-9.16.71-.44,2.75-1.22,2.92-2.08-.01.55-.03,1.11-.05,1.66Z"/>
    <path class="st6" d="M366.1,366.16l-9.11,10.49c-5.87,5.88-11.07,11.71-18.8,16.7l-.03-61.97c0-4.58,3.12-7.78,7.48-7.78h35.31c3.41,0,6.43,2.69,6.48,6.17l.2,12.97c-7.24,7.78-14.38,15.19-21.52,23.41h-.01Z"/>
    <path class="st11" d="M430.77,362.16c-.91-.98-1.64-2.12-2.58-3.07l-2.79-2.83-4.01-4.06-4.17-4.22-3.27-3.32-1.33-1.35-5.44-5.46-11.79-13.29,56.92-8.44s-9.1,59.3-9.1,59.3c-.42-.44-.84-.88-1.27-1.32l-4.67-4.86-1.02-1.06c-.42-.44-.85-.84-1.27-1.28-1.09-1.14-1.91-2.51-3.04-3.61-.29-.29-.61-.55-.9-.85-.09-.09-.19-.19-.28-.29Z"/>
    <path class="st1" d="M430.31,362.61c-.14.16-.27.32-.4.48s-.26.32-.39.47c-.25.31-.51.61-.76.91-.49.58-.99,1.15-1.5,1.71-1.58,1.74-3.24,3.4-4.93,5.03s-3.49,3.35-5.2,5.07l-.03.03c-1.01,1.02-1.98,2.07-3.03,3.04-.9.84-1.76,1.72-2.62,2.59s-1.76,1.69-2.63,2.55c-.04.04-.08.09-.13.12-.02-.06.01-.11,0-.17-.02-.08-.11-.18-.15-.25-.07-.12-.15-.23-.23-.34-.02-.02-.03-.05-.04-.07-.01-.02-.03-.03-.04-.05-.04-.05-.07-.09-.11-.14-.18-.22-.37-.44-.56-.66-.65-.74-1.32-1.47-2-2.18-.78-.82-1.58-1.63-2.39-2.41-.74-.72-1.49-1.42-2.28-2.09-.51-.44-1.05-.91-1.66-1.21-.12-.06-.34-.17-.48-.08.11-.07-.38-.79-.46-.85-.28-.23-.78-.32-1.12-.43-.91-.29-1.85-.5-2.79-.69-2.66-.53-5.34-.88-8.05-1.08-1.73-.12-3.46-.28-5.18-.46-.86-.09-1.72-.19-2.58-.3-.42-.05-.83-.1-1.25-.16-.14-.02-.97-.23-1.06-.12,2.02-2.46,3.12-4.44,4.81-6.16l17.43-17.75c3.08-3.13,6-6.01,8.71-9.11l5.44,5.46s16.23,16.45,16.23,16.45c.21.21.35.47.53.71.19.26.39.5.6.74.25.3.5.6.75.89-.15.16-.29.33-.43.5Z"/>
    <path class="st3" d="M369.26,406.49c.03-.21.02-.42-.03-.63-.43-.19-.89-.31-1.35-.43-1.76-.45-3.53-.74-5.32-1-2.97-.42-5.95-.74-8.94-1.01-1.49-.13-2.99-.26-4.48-.38-.75-.06-1.5-.12-2.25-.18-.38-.03-.75-.06-1.13-.09-.2-.02-.39-.03-.59-.05-.08,0-.45-.09-.5-.04l8.08-7.33,5.91-5.6c2.83-2.68,5.43-5.67,7.93-8.7,1.32-1.6,2.43-2.46,4.68-2.34l19.45.97c.2.86.35,1.73.48,2.6.44,2.9.69,5.83.87,8.75s.31,6.07.31,9.1c0,1.19.03,2.41-.08,3.6-.04.38-.3.44-.56.7-.38.38-.73.81-1.09,1.21-.72.79-1.44,1.56-2.17,2.33-1.45,1.53-2.93,3.03-4.44,4.49-.75.73-1.52,1.46-2.28,2.18-.38.36-.77.72-1.16,1.07-.28.26-.3.18-.56-.08-.19-.18-.37-.35-.56-.53-.64-.61-1.28-1.21-1.91-1.82s-1.33-1.27-2-1.9c-.63-.6-1.28-1.17-1.91-1.77-.14-.13-.27-.26-.42-.37-.1-.08-.2-.14-.3-.23-.27-.23-.5-.5-.78-.73-.31-.25-.62-.49-.94-.72-.63-.46-1.28-.89-1.96-1.27"/>
    <path class="st4" d="M387.1,438.26c-.25.44-.71.69-1.27,1.15-.89.73-1.77,1.46-2.66,2.19-3.11,2.58-6.14,5.27-9.24,7.85s-6.58,4.93-10,7.23c-.77.52-1.54,1.03-2.34,1.5-3.3,1.9-6.87,3.46-10.42,4.87-3.3,1.31-6.65,2.5-10.04,3.59-1.02.33-2.05,2.71-2.03,3.71l.31,14.79c.05,2.17.13,4.24.05,6.44-.34,9.91.16,19.37-.02,29.34l-.23,12.72c0,.44-.67,1.87-.67,1.64l-.49-77.55c5.48-2.18,10.6-4.12,15.47-6.99.32-.32.92-.54,1.31-.78.44-.26.87-.52,1.3-.78,3.72-2.26,7.38-4.63,10.93-7.13s7-5.15,10.33-7.95c1.69-1.43,3.36-2.89,4.98-4.39.83-.76,1.65-1.54,2.45-2.32s1.55-1.67,2.41-2.38c.16,1.08,0,2.3,0,3.4v3.45c-.02,1.15-.02,2.31-.03,3.46,0,.58,0,1.15,0,1.73,0,.42.09.86-.13,1.24Z"/>
    <path class="st2" d="M229.63,510.22c1.81-2.55,3.62-5.11,5.42-7.66.62-.87,1.24-1.75,1.9-2.6,1.79-2.3,3.74-4.49,5.86-6.5s4.02-3.83,6.2-5.6c2.96-2.4,6.07-4.56,9.23-6.68,1.59-1.06,3.21-2.07,4.83-3.1,1.91-1.22,3.81-2.44,5.68-3.72.72-.49,1.43-1,2.13-1.52.55-.42,1.53-.97,1.68-1.7.03-.12.03-.25.03-.38,0-2.68-.14-5.28-.05-7.96,0,.11,0,.22-.01.34,0-.56-.02-1.07-.02-1.63-1.61.54-3.23,1.08-4.78,1.77-1.37.62-2.69,1.35-4,2.09-2.3,1.3-4.6,2.61-6.81,4.05-10.53,6.9-18.59,16.13-24.86,27.05-2.11,3.67-3.68,7.62-5.07,11.6-.72,2.05-1.38,4.12-2.05,6.19-.24.75-.53,1.49-.8,2.23-.14.38-.27.77-.4,1.15-.1.31-.16.63-.3.93,0,.02-.02.03-.02.05,0,.02,0,.04,0,.06,0,.1,0,.21,0,.32,0,.21,0,.41.01.62.48-1.39,1.62-2.78,2.44-4,.89-1.34,1.82-2.65,2.75-3.96l1.03-1.45Z"/>
    <path class="st3" d="M375.73,420.46c1.57-1.52,3.14-3.04,4.7-4.56-.34-.12-.47-.39-.73-.59-.13-.1-.24-.19-.36-.31-.68-.65-1.36-1.29-2.04-1.94s-1.33-1.27-2-1.9c-.3-.29-.6-.57-.9-.86-.72-.69-1.49-1.3-2.21-1.98s-1.52-1.22-2.35-1.71c-.2-.12-.4-.23-.6-.34.04.84,0,1.68-.01,2.52,0,.89-.01,1.77-.02,2.66-.02,1.75-.05,3.51-.05,5.26s-.04,3.46-.07,5.2c-.01.88-.03,1.76-.04,2.64-.01.8-.13,1.68-.04,2.47"/>
    <path class="st5" d="M408.76,384.31l-.88-1.04s-.08-.09-.11-.13c-.05-.06-.11-.13-.16-.19-1.26-1.48-2.58-2.9-3.97-4.25-.35-.34-.7-.73-1.1-1s-.74-.66-1.09-.98c-.42-.37-.84-.73-1.28-1.07-.25-.19-.46-.4-.71-.59-.08-.06-.18-.09-.25-.14-.11-.09-.2-.22-.29-.33-.11-.12-.22-.23-.33-.34-.04-.04-.29-.22-.3-.28.06,2.24.1,4.48.29,6.71,0,0,1.19,14.4,1.19,14.4.86-.97,1.72-1.93,2.58-2.89.8-.89,1.6-1.79,2.38-2.7.3-.35.61-.68.89-1.04s.52-.71.8-1.05c.56-.69,1.15-1.35,1.71-2.04.12-.15.23-.29.35-.44.06-.08.13-.17.18-.26.02-.03.05-.07.07-.11.01-.03,0-.07,0-.1-.13-.28-.36-.54-.55-.78-.31-.38-.63-.76-.96-1.13-.42-.47-.85-.94-1.28-1.4-.49-.52-.98-1.03-1.48-1.54s-1.02-1.02-1.54-1.52c-.13-.13-.27-.26-.4-.39-.06-.05-.08-.11-.14-.17-.07-.08-.14-.15-.21-.24-.03-.04-.05-.08-.09-.1-.03-.02-.06-.03-.09-.05-.09-.05-.15-.14-.23-.21-.1-.08-.22-.13-.31-.22"/>
  </g>
  <path class="st0" d="M388.77,440.73v-.02"/>
  <path class="st0" d="M391.07,371.01c.08.01.15.08.15.16"/>
</svg>